<mxfile host="app.diagrams.net" modified="2024-03-19T08:27:35.302Z" agent="Mozilla/5.0 (Windows NT 10.0; Win64; x64; rv:123.0) Gecko/20100101 Firefox/123.0" etag="a0c5KtonNntZVuFNDJ85" version="24.0.7" type="github">
  <diagram name="Page-1" id="TMIu9oZjWfzS7NxXjIgf">
    <mxGraphModel dx="1183" dy="617" grid="1" gridSize="10" guides="1" tooltips="1" connect="1" arrows="1" fold="1" page="1" pageScale="1" pageWidth="850" pageHeight="1100" math="0" shadow="0">
      <root>
        <mxCell id="0" />
        <mxCell id="1" parent="0" />
        <mxCell id="iEdo7Ytky-OxDYcLE7NU-14" value="Alt" style="shape=umlFrame;whiteSpace=wrap;html=1;pointerEvents=0;recursiveResize=0;container=1;collapsible=0;width=30;height=20;" parent="1" vertex="1">
          <mxGeometry x="10" y="140" width="620" height="250" as="geometry" />
        </mxCell>
        <mxCell id="iEdo7Ytky-OxDYcLE7NU-15" value="OK" style="text;html=1;" parent="iEdo7Ytky-OxDYcLE7NU-14" vertex="1">
          <mxGeometry width="80" height="20" relative="1" as="geometry">
            <mxPoint x="37" y="21" as="offset" />
          </mxGeometry>
        </mxCell>
        <mxCell id="iEdo7Ytky-OxDYcLE7NU-16" value="" style="line;strokeWidth=1;dashed=1;labelPosition=center;verticalLabelPosition=bottom;align=left;verticalAlign=top;spacingLeft=20;spacingTop=15;html=1;whiteSpace=wrap;" parent="iEdo7Ytky-OxDYcLE7NU-14" vertex="1">
          <mxGeometry y="120" width="620" height="10" as="geometry" />
        </mxCell>
        <mxCell id="iEdo7Ytky-OxDYcLE7NU-5" value="Database" style="shape=umlLifeline;perimeter=lifelinePerimeter;whiteSpace=wrap;html=1;container=1;dropTarget=0;collapsible=0;recursiveResize=0;outlineConnect=0;portConstraint=eastwest;newEdgeStyle={&quot;curved&quot;:0,&quot;rounded&quot;:0};" parent="iEdo7Ytky-OxDYcLE7NU-14" vertex="1">
          <mxGeometry x="490" y="-120" width="100" height="340" as="geometry" />
        </mxCell>
        <mxCell id="iEdo7Ytky-OxDYcLE7NU-20" value="" style="html=1;points=[[0,0,0,0,5],[0,1,0,0,-5],[1,0,0,0,5],[1,1,0,0,-5]];perimeter=orthogonalPerimeter;outlineConnect=0;targetShapes=umlLifeline;portConstraint=eastwest;newEdgeStyle={&quot;curved&quot;:0,&quot;rounded&quot;:0};" parent="iEdo7Ytky-OxDYcLE7NU-5" vertex="1">
          <mxGeometry x="45" y="180" width="10" height="50" as="geometry" />
        </mxCell>
        <mxCell id="iEdo7Ytky-OxDYcLE7NU-17" value="Exception" style="text;html=1;align=center;verticalAlign=middle;whiteSpace=wrap;rounded=0;" parent="iEdo7Ytky-OxDYcLE7NU-14" vertex="1">
          <mxGeometry x="35" y="130" width="60" height="30" as="geometry" />
        </mxCell>
        <mxCell id="iEdo7Ytky-OxDYcLE7NU-1" value="" style="shape=umlLifeline;perimeter=lifelinePerimeter;whiteSpace=wrap;html=1;container=1;dropTarget=0;collapsible=0;recursiveResize=0;outlineConnect=0;portConstraint=eastwest;newEdgeStyle={&quot;curved&quot;:0,&quot;rounded&quot;:0};participant=umlActor;" parent="1" vertex="1">
          <mxGeometry x="30" y="20" width="20" height="340" as="geometry" />
        </mxCell>
        <mxCell id="iEdo7Ytky-OxDYcLE7NU-2" value="" style="html=1;points=[[0,0,0,0,5],[0,1,0,0,-5],[1,0,0,0,5],[1,1,0,0,-5]];perimeter=orthogonalPerimeter;outlineConnect=0;targetShapes=umlLifeline;portConstraint=eastwest;newEdgeStyle={&quot;curved&quot;:0,&quot;rounded&quot;:0};" parent="iEdo7Ytky-OxDYcLE7NU-1" vertex="1">
          <mxGeometry x="5" y="60" width="10" height="260" as="geometry" />
        </mxCell>
        <mxCell id="iEdo7Ytky-OxDYcLE7NU-3" value="View" style="shape=umlLifeline;perimeter=lifelinePerimeter;whiteSpace=wrap;html=1;container=1;dropTarget=0;collapsible=0;recursiveResize=0;outlineConnect=0;portConstraint=eastwest;newEdgeStyle={&quot;curved&quot;:0,&quot;rounded&quot;:0};" parent="1" vertex="1">
          <mxGeometry x="110" y="20" width="100" height="340" as="geometry" />
        </mxCell>
        <mxCell id="iEdo7Ytky-OxDYcLE7NU-7" value="" style="html=1;points=[[0,0,0,0,5],[0,1,0,0,-5],[1,0,0,0,5],[1,1,0,0,-5]];perimeter=orthogonalPerimeter;outlineConnect=0;targetShapes=umlLifeline;portConstraint=eastwest;newEdgeStyle={&quot;curved&quot;:0,&quot;rounded&quot;:0};" parent="iEdo7Ytky-OxDYcLE7NU-3" vertex="1">
          <mxGeometry x="45" y="70" width="10" height="240" as="geometry" />
        </mxCell>
        <mxCell id="iEdo7Ytky-OxDYcLE7NU-4" value="Controller" style="shape=umlLifeline;perimeter=lifelinePerimeter;whiteSpace=wrap;html=1;container=1;dropTarget=0;collapsible=0;recursiveResize=0;outlineConnect=0;portConstraint=eastwest;newEdgeStyle={&quot;curved&quot;:0,&quot;rounded&quot;:0};" parent="1" vertex="1">
          <mxGeometry x="250" y="20" width="100" height="340" as="geometry" />
        </mxCell>
        <mxCell id="iEdo7Ytky-OxDYcLE7NU-9" value="" style="html=1;points=[[0,0,0,0,5],[0,1,0,0,-5],[1,0,0,0,5],[1,1,0,0,-5]];perimeter=orthogonalPerimeter;outlineConnect=0;targetShapes=umlLifeline;portConstraint=eastwest;newEdgeStyle={&quot;curved&quot;:0,&quot;rounded&quot;:0};" parent="iEdo7Ytky-OxDYcLE7NU-4" vertex="1">
          <mxGeometry x="45" y="90" width="10" height="210" as="geometry" />
        </mxCell>
        <mxCell id="iEdo7Ytky-OxDYcLE7NU-6" value="New User" style="html=1;verticalAlign=bottom;endArrow=block;curved=0;rounded=0;" parent="1" target="iEdo7Ytky-OxDYcLE7NU-7" edge="1">
          <mxGeometry width="80" relative="1" as="geometry">
            <mxPoint x="45" y="100.00000000000006" as="sourcePoint" />
            <mxPoint x="150" y="100" as="targetPoint" />
          </mxGeometry>
        </mxCell>
        <mxCell id="iEdo7Ytky-OxDYcLE7NU-8" value="doNewUser()" style="html=1;verticalAlign=bottom;endArrow=block;curved=0;rounded=0;" parent="1" target="iEdo7Ytky-OxDYcLE7NU-9" edge="1">
          <mxGeometry x="-0.0007" width="80" relative="1" as="geometry">
            <mxPoint x="165" y="120" as="sourcePoint" />
            <mxPoint x="290" y="120" as="targetPoint" />
            <mxPoint as="offset" />
          </mxGeometry>
        </mxCell>
        <mxCell id="iEdo7Ytky-OxDYcLE7NU-10" value="Image&lt;br&gt;Processing" style="shape=umlLifeline;perimeter=lifelinePerimeter;whiteSpace=wrap;html=1;container=1;dropTarget=0;collapsible=0;recursiveResize=0;outlineConnect=0;portConstraint=eastwest;newEdgeStyle={&quot;curved&quot;:0,&quot;rounded&quot;:0};" parent="1" vertex="1">
          <mxGeometry x="375" y="20" width="100" height="340" as="geometry" />
        </mxCell>
        <mxCell id="iEdo7Ytky-OxDYcLE7NU-11" value="" style="html=1;points=[[0,0,0,0,5],[0,1,0,0,-5],[1,0,0,0,5],[1,1,0,0,-5]];perimeter=orthogonalPerimeter;outlineConnect=0;targetShapes=umlLifeline;portConstraint=eastwest;newEdgeStyle={&quot;curved&quot;:0,&quot;rounded&quot;:0};" parent="iEdo7Ytky-OxDYcLE7NU-10" vertex="1">
          <mxGeometry x="45" y="130" width="10" height="40" as="geometry" />
        </mxCell>
        <mxCell id="iEdo7Ytky-OxDYcLE7NU-23" value="" style="html=1;points=[[0,0,0,0,5],[0,1,0,0,-5],[1,0,0,0,5],[1,1,0,0,-5]];perimeter=orthogonalPerimeter;outlineConnect=0;targetShapes=umlLifeline;portConstraint=eastwest;newEdgeStyle={&quot;curved&quot;:0,&quot;rounded&quot;:0};" parent="iEdo7Ytky-OxDYcLE7NU-10" vertex="1">
          <mxGeometry x="45" y="250" width="10" height="40" as="geometry" />
        </mxCell>
        <mxCell id="iEdo7Ytky-OxDYcLE7NU-12" value="validate()" style="html=1;verticalAlign=bottom;endArrow=block;curved=0;rounded=0;entryX=0;entryY=0;entryDx=0;entryDy=5;" parent="1" edge="1">
          <mxGeometry relative="1" as="geometry">
            <mxPoint x="305" y="157" as="sourcePoint" />
            <mxPoint x="420" y="157" as="targetPoint" />
          </mxGeometry>
        </mxCell>
        <mxCell id="iEdo7Ytky-OxDYcLE7NU-13" value="ok" style="html=1;verticalAlign=bottom;endArrow=open;dashed=1;endSize=8;curved=0;rounded=0;" parent="1" edge="1">
          <mxGeometry relative="1" as="geometry">
            <mxPoint x="305" y="183" as="targetPoint" />
            <mxPoint x="420" y="183" as="sourcePoint" />
          </mxGeometry>
        </mxCell>
        <mxCell id="iEdo7Ytky-OxDYcLE7NU-21" value="store()" style="html=1;verticalAlign=bottom;endArrow=block;curved=0;rounded=0;entryX=0;entryY=0;entryDx=0;entryDy=5;" parent="1" edge="1">
          <mxGeometry relative="1" as="geometry">
            <mxPoint x="305" y="215" as="sourcePoint" />
            <mxPoint x="545" y="215" as="targetPoint" />
          </mxGeometry>
        </mxCell>
        <mxCell id="iEdo7Ytky-OxDYcLE7NU-22" value="ok" style="html=1;verticalAlign=bottom;endArrow=open;dashed=1;endSize=8;curved=0;rounded=0;exitX=0;exitY=1;exitDx=0;exitDy=-5;" parent="1" source="iEdo7Ytky-OxDYcLE7NU-20" target="iEdo7Ytky-OxDYcLE7NU-9" edge="1">
          <mxGeometry relative="1" as="geometry">
            <mxPoint x="475" y="255" as="targetPoint" />
          </mxGeometry>
        </mxCell>
        <mxCell id="iEdo7Ytky-OxDYcLE7NU-24" value="failed" style="html=1;verticalAlign=bottom;endArrow=open;dashed=1;endSize=8;curved=0;rounded=0;" parent="1" edge="1">
          <mxGeometry relative="1" as="geometry">
            <mxPoint x="420" y="303" as="sourcePoint" />
            <mxPoint x="305" y="303" as="targetPoint" />
          </mxGeometry>
        </mxCell>
        <mxCell id="iEdo7Ytky-OxDYcLE7NU-25" value="validate()" style="html=1;verticalAlign=bottom;endArrow=block;curved=0;rounded=0;entryX=0;entryY=0;entryDx=0;entryDy=5;" parent="1" edge="1">
          <mxGeometry relative="1" as="geometry">
            <mxPoint x="305" y="281" as="sourcePoint" />
            <mxPoint x="420" y="281" as="targetPoint" />
          </mxGeometry>
        </mxCell>
        <mxCell id="iEdo7Ytky-OxDYcLE7NU-26" value="ok" style="html=1;verticalAlign=bottom;endArrow=open;dashed=1;endSize=8;curved=0;rounded=0;" parent="1" edge="1">
          <mxGeometry relative="1" as="geometry">
            <mxPoint x="295" y="251" as="sourcePoint" />
            <mxPoint x="165" y="251" as="targetPoint" />
          </mxGeometry>
        </mxCell>
        <mxCell id="iEdo7Ytky-OxDYcLE7NU-27" value="ok" style="html=1;verticalAlign=bottom;endArrow=open;dashed=1;endSize=8;curved=0;rounded=0;" parent="1" source="iEdo7Ytky-OxDYcLE7NU-7" edge="1">
          <mxGeometry relative="1" as="geometry">
            <mxPoint x="159.5" y="257" as="sourcePoint" />
            <mxPoint x="45" y="257" as="targetPoint" />
          </mxGeometry>
        </mxCell>
        <mxCell id="iEdo7Ytky-OxDYcLE7NU-28" value="failed" style="html=1;verticalAlign=bottom;endArrow=open;dashed=1;endSize=8;curved=0;rounded=0;" parent="1" edge="1">
          <mxGeometry relative="1" as="geometry">
            <mxPoint x="295" y="308" as="sourcePoint" />
            <mxPoint x="165" y="308" as="targetPoint" />
          </mxGeometry>
        </mxCell>
        <mxCell id="iEdo7Ytky-OxDYcLE7NU-29" value="failed" style="html=1;verticalAlign=bottom;endArrow=open;dashed=1;endSize=8;curved=0;rounded=0;" parent="1" edge="1">
          <mxGeometry relative="1" as="geometry">
            <mxPoint x="155" y="316.5" as="sourcePoint" />
            <mxPoint x="45" y="316.5" as="targetPoint" />
          </mxGeometry>
        </mxCell>
        <mxCell id="4sxgYkIIa8AyiHVq7WXi-2" value="" style="shape=umlLifeline;perimeter=lifelinePerimeter;whiteSpace=wrap;html=1;container=1;dropTarget=0;collapsible=0;recursiveResize=0;outlineConnect=0;portConstraint=eastwest;newEdgeStyle={&quot;curved&quot;:0,&quot;rounded&quot;:0};participant=umlActor;" parent="1" vertex="1">
          <mxGeometry x="30" y="430" width="20" height="250" as="geometry" />
        </mxCell>
        <mxCell id="4sxgYkIIa8AyiHVq7WXi-3" value="" style="html=1;points=[[0,0,0,0,5],[0,1,0,0,-5],[1,0,0,0,5],[1,1,0,0,-5]];perimeter=orthogonalPerimeter;outlineConnect=0;targetShapes=umlLifeline;portConstraint=eastwest;newEdgeStyle={&quot;curved&quot;:0,&quot;rounded&quot;:0};" parent="4sxgYkIIa8AyiHVq7WXi-2" vertex="1">
          <mxGeometry x="5" y="63" width="10" height="147" as="geometry" />
        </mxCell>
        <mxCell id="4sxgYkIIa8AyiHVq7WXi-4" value="View" style="shape=umlLifeline;perimeter=lifelinePerimeter;whiteSpace=wrap;html=1;container=1;dropTarget=0;collapsible=0;recursiveResize=0;outlineConnect=0;portConstraint=eastwest;newEdgeStyle={&quot;curved&quot;:0,&quot;rounded&quot;:0};" parent="1" vertex="1">
          <mxGeometry x="110" y="430" width="100" height="250" as="geometry" />
        </mxCell>
        <mxCell id="4sxgYkIIa8AyiHVq7WXi-5" value="" style="html=1;points=[[0,0,0,0,5],[0,1,0,0,-5],[1,0,0,0,5],[1,1,0,0,-5]];perimeter=orthogonalPerimeter;outlineConnect=0;targetShapes=umlLifeline;portConstraint=eastwest;newEdgeStyle={&quot;curved&quot;:0,&quot;rounded&quot;:0};" parent="4sxgYkIIa8AyiHVq7WXi-4" vertex="1">
          <mxGeometry x="45" y="67" width="10" height="127" as="geometry" />
        </mxCell>
        <mxCell id="4sxgYkIIa8AyiHVq7WXi-6" value="Controller" style="shape=umlLifeline;perimeter=lifelinePerimeter;whiteSpace=wrap;html=1;container=1;dropTarget=0;collapsible=0;recursiveResize=0;outlineConnect=0;portConstraint=eastwest;newEdgeStyle={&quot;curved&quot;:0,&quot;rounded&quot;:0};" parent="1" vertex="1">
          <mxGeometry x="250" y="430" width="100" height="250" as="geometry" />
        </mxCell>
        <mxCell id="4sxgYkIIa8AyiHVq7WXi-7" value="" style="html=1;points=[[0,0,0,0,5],[0,1,0,0,-5],[1,0,0,0,5],[1,1,0,0,-5]];perimeter=orthogonalPerimeter;outlineConnect=0;targetShapes=umlLifeline;portConstraint=eastwest;newEdgeStyle={&quot;curved&quot;:0,&quot;rounded&quot;:0};" parent="4sxgYkIIa8AyiHVq7WXi-6" vertex="1">
          <mxGeometry x="45" y="80" width="10" height="100" as="geometry" />
        </mxCell>
        <mxCell id="4sxgYkIIa8AyiHVq7WXi-8" value="Database" style="shape=umlLifeline;perimeter=lifelinePerimeter;whiteSpace=wrap;html=1;container=1;dropTarget=0;collapsible=0;recursiveResize=0;outlineConnect=0;portConstraint=eastwest;newEdgeStyle={&quot;curved&quot;:0,&quot;rounded&quot;:0};" parent="1" vertex="1">
          <mxGeometry x="370" y="430" width="100" height="250" as="geometry" />
        </mxCell>
        <mxCell id="4sxgYkIIa8AyiHVq7WXi-9" value="" style="html=1;points=[[0,0,0,0,5],[0,1,0,0,-5],[1,0,0,0,5],[1,1,0,0,-5]];perimeter=orthogonalPerimeter;outlineConnect=0;targetShapes=umlLifeline;portConstraint=eastwest;newEdgeStyle={&quot;curved&quot;:0,&quot;rounded&quot;:0};" parent="4sxgYkIIa8AyiHVq7WXi-8" vertex="1">
          <mxGeometry x="45" y="83" width="10" height="93" as="geometry" />
        </mxCell>
        <mxCell id="4sxgYkIIa8AyiHVq7WXi-10" value="View Users" style="html=1;verticalAlign=bottom;endArrow=block;curved=0;rounded=0;" parent="1" edge="1">
          <mxGeometry width="80" relative="1" as="geometry">
            <mxPoint x="45" y="506.5" as="sourcePoint" />
            <mxPoint x="155" y="506.5" as="targetPoint" />
          </mxGeometry>
        </mxCell>
        <mxCell id="4sxgYkIIa8AyiHVq7WXi-11" value="getUsers()" style="html=1;verticalAlign=bottom;endArrow=block;curved=0;rounded=0;" parent="1" edge="1">
          <mxGeometry width="80" relative="1" as="geometry">
            <mxPoint x="165" y="520.5" as="sourcePoint" />
            <mxPoint x="295" y="520.5" as="targetPoint" />
          </mxGeometry>
        </mxCell>
        <mxCell id="4sxgYkIIa8AyiHVq7WXi-12" value="getUsers()" style="html=1;verticalAlign=bottom;endArrow=block;curved=0;rounded=0;" parent="1" edge="1">
          <mxGeometry width="80" relative="1" as="geometry">
            <mxPoint x="305" y="530.0000000000001" as="sourcePoint" />
            <mxPoint x="415" y="530.0000000000001" as="targetPoint" />
          </mxGeometry>
        </mxCell>
        <mxCell id="4sxgYkIIa8AyiHVq7WXi-13" value="userLst" style="html=1;verticalAlign=bottom;endArrow=open;dashed=1;endSize=8;curved=0;rounded=0;" parent="1" edge="1">
          <mxGeometry relative="1" as="geometry">
            <mxPoint x="415" y="589.5000000000001" as="sourcePoint" />
            <mxPoint x="305.0000000000001" y="589.5000000000001" as="targetPoint" />
          </mxGeometry>
        </mxCell>
        <mxCell id="4sxgYkIIa8AyiHVq7WXi-14" value="userLst" style="html=1;verticalAlign=bottom;endArrow=open;dashed=1;endSize=8;curved=0;rounded=0;" parent="1" edge="1">
          <mxGeometry relative="1" as="geometry">
            <mxPoint x="295" y="597" as="sourcePoint" />
            <mxPoint x="165" y="597" as="targetPoint" />
          </mxGeometry>
        </mxCell>
        <mxCell id="4sxgYkIIa8AyiHVq7WXi-15" value="userLst" style="html=1;verticalAlign=bottom;endArrow=open;dashed=1;endSize=8;curved=0;rounded=0;" parent="1" edge="1">
          <mxGeometry relative="1" as="geometry">
            <mxPoint x="155" y="610.5" as="sourcePoint" />
            <mxPoint x="45" y="610.5" as="targetPoint" />
          </mxGeometry>
        </mxCell>
        <mxCell id="4sxgYkIIa8AyiHVq7WXi-16" value="" style="shape=umlLifeline;perimeter=lifelinePerimeter;whiteSpace=wrap;html=1;container=1;dropTarget=0;collapsible=0;recursiveResize=0;outlineConnect=0;portConstraint=eastwest;newEdgeStyle={&quot;curved&quot;:0,&quot;rounded&quot;:0};participant=umlActor;" parent="1" vertex="1">
          <mxGeometry x="35" y="700" width="20" height="250" as="geometry" />
        </mxCell>
        <mxCell id="4sxgYkIIa8AyiHVq7WXi-17" value="" style="html=1;points=[[0,0,0,0,5],[0,1,0,0,-5],[1,0,0,0,5],[1,1,0,0,-5]];perimeter=orthogonalPerimeter;outlineConnect=0;targetShapes=umlLifeline;portConstraint=eastwest;newEdgeStyle={&quot;curved&quot;:0,&quot;rounded&quot;:0};" parent="4sxgYkIIa8AyiHVq7WXi-16" vertex="1">
          <mxGeometry x="5" y="63" width="10" height="147" as="geometry" />
        </mxCell>
        <mxCell id="4sxgYkIIa8AyiHVq7WXi-18" value="View" style="shape=umlLifeline;perimeter=lifelinePerimeter;whiteSpace=wrap;html=1;container=1;dropTarget=0;collapsible=0;recursiveResize=0;outlineConnect=0;portConstraint=eastwest;newEdgeStyle={&quot;curved&quot;:0,&quot;rounded&quot;:0};" parent="1" vertex="1">
          <mxGeometry x="115" y="700" width="100" height="250" as="geometry" />
        </mxCell>
        <mxCell id="4sxgYkIIa8AyiHVq7WXi-19" value="" style="html=1;points=[[0,0,0,0,5],[0,1,0,0,-5],[1,0,0,0,5],[1,1,0,0,-5]];perimeter=orthogonalPerimeter;outlineConnect=0;targetShapes=umlLifeline;portConstraint=eastwest;newEdgeStyle={&quot;curved&quot;:0,&quot;rounded&quot;:0};" parent="4sxgYkIIa8AyiHVq7WXi-18" vertex="1">
          <mxGeometry x="45" y="67" width="10" height="127" as="geometry" />
        </mxCell>
        <mxCell id="4sxgYkIIa8AyiHVq7WXi-20" value="Controller" style="shape=umlLifeline;perimeter=lifelinePerimeter;whiteSpace=wrap;html=1;container=1;dropTarget=0;collapsible=0;recursiveResize=0;outlineConnect=0;portConstraint=eastwest;newEdgeStyle={&quot;curved&quot;:0,&quot;rounded&quot;:0};" parent="1" vertex="1">
          <mxGeometry x="255" y="700" width="100" height="250" as="geometry" />
        </mxCell>
        <mxCell id="4sxgYkIIa8AyiHVq7WXi-21" value="" style="html=1;points=[[0,0,0,0,5],[0,1,0,0,-5],[1,0,0,0,5],[1,1,0,0,-5]];perimeter=orthogonalPerimeter;outlineConnect=0;targetShapes=umlLifeline;portConstraint=eastwest;newEdgeStyle={&quot;curved&quot;:0,&quot;rounded&quot;:0};" parent="4sxgYkIIa8AyiHVq7WXi-20" vertex="1">
          <mxGeometry x="45" y="80" width="10" height="100" as="geometry" />
        </mxCell>
        <mxCell id="4sxgYkIIa8AyiHVq7WXi-22" value="Database" style="shape=umlLifeline;perimeter=lifelinePerimeter;whiteSpace=wrap;html=1;container=1;dropTarget=0;collapsible=0;recursiveResize=0;outlineConnect=0;portConstraint=eastwest;newEdgeStyle={&quot;curved&quot;:0,&quot;rounded&quot;:0};" parent="1" vertex="1">
          <mxGeometry x="375" y="700" width="100" height="250" as="geometry" />
        </mxCell>
        <mxCell id="4sxgYkIIa8AyiHVq7WXi-23" value="" style="html=1;points=[[0,0,0,0,5],[0,1,0,0,-5],[1,0,0,0,5],[1,1,0,0,-5]];perimeter=orthogonalPerimeter;outlineConnect=0;targetShapes=umlLifeline;portConstraint=eastwest;newEdgeStyle={&quot;curved&quot;:0,&quot;rounded&quot;:0};" parent="4sxgYkIIa8AyiHVq7WXi-22" vertex="1">
          <mxGeometry x="45" y="83" width="10" height="93" as="geometry" />
        </mxCell>
        <mxCell id="4sxgYkIIa8AyiHVq7WXi-24" value="Delete" style="html=1;verticalAlign=bottom;endArrow=block;curved=0;rounded=0;" parent="1" edge="1">
          <mxGeometry width="80" relative="1" as="geometry">
            <mxPoint x="50" y="776.5" as="sourcePoint" />
            <mxPoint x="160" y="776.5" as="targetPoint" />
          </mxGeometry>
        </mxCell>
        <mxCell id="4sxgYkIIa8AyiHVq7WXi-25" value="deleteUser()" style="html=1;verticalAlign=bottom;endArrow=block;curved=0;rounded=0;" parent="1" edge="1">
          <mxGeometry width="80" relative="1" as="geometry">
            <mxPoint x="170" y="790.5" as="sourcePoint" />
            <mxPoint x="300" y="790.5" as="targetPoint" />
          </mxGeometry>
        </mxCell>
        <mxCell id="4sxgYkIIa8AyiHVq7WXi-26" value="deleteUser()" style="html=1;verticalAlign=bottom;endArrow=block;curved=0;rounded=0;" parent="1" edge="1">
          <mxGeometry width="80" relative="1" as="geometry">
            <mxPoint x="310" y="839.7600000000001" as="sourcePoint" />
            <mxPoint x="420" y="839.7600000000001" as="targetPoint" />
          </mxGeometry>
        </mxCell>
        <mxCell id="4sxgYkIIa8AyiHVq7WXi-27" value="response" style="html=1;verticalAlign=bottom;endArrow=open;dashed=1;endSize=8;curved=0;rounded=0;" parent="1" edge="1">
          <mxGeometry relative="1" as="geometry">
            <mxPoint x="420" y="863.5000000000001" as="sourcePoint" />
            <mxPoint x="310.0000000000001" y="863.5000000000001" as="targetPoint" />
          </mxGeometry>
        </mxCell>
        <mxCell id="4sxgYkIIa8AyiHVq7WXi-28" value="response" style="html=1;verticalAlign=bottom;endArrow=open;dashed=1;endSize=8;curved=0;rounded=0;" parent="1" edge="1">
          <mxGeometry relative="1" as="geometry">
            <mxPoint x="300" y="870" as="sourcePoint" />
            <mxPoint x="170" y="870" as="targetPoint" />
          </mxGeometry>
        </mxCell>
        <mxCell id="4sxgYkIIa8AyiHVq7WXi-29" value="response" style="html=1;verticalAlign=bottom;endArrow=open;dashed=1;endSize=8;curved=0;rounded=0;" parent="1" edge="1">
          <mxGeometry relative="1" as="geometry">
            <mxPoint x="160" y="880.5" as="sourcePoint" />
            <mxPoint x="50" y="880.5" as="targetPoint" />
          </mxGeometry>
        </mxCell>
        <mxCell id="1pVe74C1T3iOP67t9ZLY-1" value="deletePhysical()" style="html=1;verticalAlign=bottom;endArrow=block;curved=0;rounded=0;" edge="1" parent="1">
          <mxGeometry x="0.0909" width="80" relative="1" as="geometry">
            <mxPoint x="310" y="794" as="sourcePoint" />
            <mxPoint x="309.9999999999999" y="824" as="targetPoint" />
            <Array as="points">
              <mxPoint x="350" y="794" />
              <mxPoint x="350" y="824" />
            </Array>
            <mxPoint as="offset" />
          </mxGeometry>
        </mxCell>
      </root>
    </mxGraphModel>
  </diagram>
</mxfile>
